OpenSim_Sub06_EMGBaseline_GRF.mot
version=1
nRows=40
nColumns=19
inDegrees=no
endheader
time	lFx	lFy	lFz	lCOPx	lCOPy	lCOPz	rFx	rFy	rFz	rCOPx	rCOPy	rCOPz	lMx	lMy	lMz	rMx	rMy	rMz
41.35000000	12.03362650	91.87391871	-5.10636944	0.70267208	0	-0.44564619	80.84611946	609.15631391	-74.08463832	0.58167054	0	-0.27209695	0	5.58187941	0	0	1.74163344	0
41.36000000	0.44955438	163.17888245	-0.25751002	0.84344584	0	-0.53822605	83.80774737	593.24319251	-72.30268977	0.57710937	0	-0.27207085	0	8.89649552	0	0	1.68776869	0
41.37000000	-15.23849426	247.20084154	10.26345407	0.89021381	0	-0.57163016	85.69401537	571.92915834	-69.14148699	0.57328643	0	-0.27218000	0	10.89978531	0	0	1.61125485	0
41.38000000	-28.15485630	327.52176689	23.62514645	0.89034698	0	-0.57529468	86.37128437	543.60591692	-64.26828530	0.56989999	0	-0.27233850	0	11.44738434	0	0	1.57456615	0
41.39000000	-36.93650076	387.91245769	35.87558204	0.87672884	0	-0.57028036	85.86561593	507.06099170	-57.71208023	0.56631921	0	-0.27252720	0	11.00698405	0	0	1.65628530	0
41.40000000	-42.96236548	422.00363106	45.05331100	0.86377219	0	-0.56606934	83.86074966	462.56993780	-49.88127317	0.56212369	0	-0.27278581	0	10.02852864	0	0	1.86513084	0
41.41000000	-46.90589993	435.26627333	52.71550888	0.85440382	0	-0.56492061	79.85461131	411.61894155	-41.45397577	0.55770343	0	-0.27313004	0	8.44549080	0	0	2.09160742	0
41.42000000	-49.08312276	438.96543886	60.64407096	0.84744818	0	-0.56614204	73.63527022	356.19208507	-33.02181343	0.55372478	0	-0.27367278	0	6.36137615	0	0	2.18427416	-0.00000000
41.43000000	-49.91720988	443.03979379	69.04967349	0.84191226	0	-0.56843586	65.20699815	298.53168683	-25.10768997	0.55107464	0	-0.27489296	0	4.18914375	0	0	2.07368928	0
41.44000000	-49.66770905	452.72377447	77.11708523	0.83703229	0	-0.57071691	54.76887706	241.32156446	-18.61398385	0.55158811	0	-0.27750643	0	2.32707723	0	0	1.77844746	0
41.45000000	-48.22877982	469.55637725	83.54482751	0.83203192	0	-0.57245019	42.88816879	187.32949993	-14.04235573	0.55613633	0	-0.28153950	0	1.11743032	0	0	1.49630824	0
41.46000000	-45.59195899	493.39152726	87.63138369	0.82629901	0	-0.57353821	30.44068227	139.24558585	-10.55522340	0.55951996	0	-0.28428306	0	0.69597851	0	0	1.07356092	0
41.47000000	-42.16484921	522.50786927	89.64625671	0.81979154	0	-0.57403837	18.62643210	99.22415892	-7.85439171	0.54664394	0	-0.27802655	0	0.87015391	0	0	0.62087286	0
41.48000000	-38.74288888	554.11869893	90.43396838	0.81311377	0	-0.57424170	8.59685847	68.16883801	-5.86444859	0.49104725	0	-0.24875332	0	1.35847653	0	0	0.20276196	0
41.49000000	-35.98686119	585.15159357	90.93344226	0.80674459	0	-0.57442698	0.97156832	45.40370026	-4.56439025	0.36612996	0	-0.18311138	0	1.86240182	0	0	-0.11978741	-0.00000000
41.50000000	-33.94893187	613.17419514	91.70273132	0.80090744	0	-0.57476395	-4.09482588	29.19896220	-3.83614601	0.19218945	0	-0.09394734	0	2.17560935	0	0	-0.18597535	0.00000000
41.51000000	-32.29742079	637.08101419	92.80760348	0.79547184	0	-0.57528459	-6.61572842	17.72625332	-3.13605124	0.05895028	0	-0.02767738	0	2.22620549	0	0	-0.11876278	0.00000000
41.52000000	-30.64374105	656.89614653	93.92288656	0.79015811	0	-0.57592792	-6.35325956	9.33969166	-2.19867897	-0.00313001	0	0.00244892	0	2.04384836	0	0	-0.04675877	0.00000000
41.53000000	-28.85285320	672.98243808	94.77827111	0.78493307	0	-0.57660658	-3.86682492	3.32105861	-1.01027270	-0.01807139	0	0.00927463	0	1.66465108	0	0	-0.00639943	-0.00000000
41.54000000	-26.79230269	685.48627414	95.20973275	0.77968319	0	-0.57721870	-1.51123169	0.18267537	0.01419553	-0.01375251	0	0.00683590	0	1.19371492	0	0	0.00716895	0.00000000
41.55000000	-24.34913255	694.21867189	95.13070310	0.77433348	0	-0.57775572	-0.25549188	-0.74323513	0.20727163	-0.00632817	0	0.00306851	0	0.74416862	0	0	0.00747076	-0.00000000
41.56000000	-21.63605454	698.75333030	94.50373370	0.76882120	0	-0.57823067	0.12350319	-0.74213085	0.19133708	-0.00147802	0	0.00067256	0	0.33203634	0	0	0.00413597	0.00000000
41.57000000	-18.99384725	698.86544538	93.29283339	0.76346657	0	-0.57868487	0.08269577	-0.61501531	0.21005991	0.00047657	0	-0.00026669	0	-0.05260763	0	0	0.00136623	0.00000000
41.58000000	-16.74735698	694.62182047	91.56630924	0.75850319	0	-0.57919250	-0.03250500	-0.56495113	0.10312168	0.00077423	0	-0.00039250	0	-0.43722069	0	0	0.00001138	-0.00000000
41.59000000	-14.97278883	686.38521128	89.65161943	0.75389152	0	-0.57983452	-0.09566066	-0.54529251	0.09019577	0.00049888	0	-0.00024630	0	-0.91725005	0	0	-0.00035112	0.00000000
41.60000000	-13.55040007	675.08399640	87.86487154	0.74949225	0	-0.58063638	-0.10950028	-0.55786163	0.14337010	0.00019826	0	-0.00009517	0	-1.53123332	0	0	-0.00028625	0.00000000
41.61000000	-12.20588573	662.23839186	86.26084023	0.74515906	0	-0.58153129	-0.11076100	-0.62102405	0.12126344	0.00002837	0	-0.00001182	0	-2.16148068	0	0	-0.00013831	0.00000000
41.62000000	-10.86321802	649.37231975	84.81976715	0.74084039	0	-0.58241204	-0.13709176	-0.66344753	0.10637164	-0.00002941	0	0.00001556	0	-2.70597297	0	0	-0.00003610	0.00000000
41.63000000	-9.46110473	637.23448453	83.43634875	0.73640566	0	-0.58315499	-0.13934581	-0.64033738	0.16147160	-0.00003123	0	0.00001568	0	-3.12359042	0	0	0.00000734	-0.00000000
41.64000000	-7.85813953	626.28227373	81.97909257	0.73186887	0	-0.58372605	-0.12533029	-0.60767765	0.19061691	-0.00001748	0	0.00000856	0	-3.39479676	0	0	0.00001541	0.00000000
41.65000000	-6.02084147	617.07996467	80.51507229	0.72718462	0	-0.58419033	-0.12694563	-0.56622379	0.19156231	-0.00000593	0	0.00000279	0	-3.55286556	0	0	0.00001049	-0.00000000
41.66000000	-3.98625506	610.16781354	79.18714473	0.72249229	0	-0.58464281	-0.11959000	-0.52806869	0.16225612	-0.00000016	0	-0.00000001	0	-3.59423739	0	0	0.00000447	0.00000000
41.67000000	-1.88353483	605.91350636	78.12962707	0.71793910	0	-0.58514216	-0.10988158	-0.51190830	0.08508572	0.00000167	0	-0.00000083	0	-3.49802233	0	0	0.00000110	-0.00000000
41.68000000	0.24200750	604.14592619	77.38427898	0.71344485	0	-0.58566176	-0.11945434	-0.53925407	0.07946747	0.00000209	0	-0.00000092	0	-3.27379068	0	0	0.00000023	0.00000000
41.69000000	2.42496346	604.29883312	76.82374687	0.70883570	0	-0.58617971	-0.13387983	-0.56474048	0.11499872	0.00000250	0	-0.00000097	0	-2.91346137	0	0	0.00000051	-0.00000000
41.70000000	4.70268823	605.73815872	76.34749693	0.70391023	0	-0.58668986	-0.12679984	-0.57696886	0.09777702	0.00000262	0	-0.00000095	0	-2.42776649	0	0	0.00000025	-0.00000000
41.71000000	7.01038736	607.99547370	75.99388440	0.69868699	0	-0.58716757	-0.10564593	-0.59004543	0.07517056	0.00000024	0	-0.00000006	0	-1.88301760	0	0	-0.00000259	-0.00000000
41.72000000	9.35958469	610.94938868	75.87165342	0.69317161	0	-0.58757682	-0.10985094	-0.54983360	0.07095498	-0.00000858	0	0.00000312	0	-1.36261092	0	0	-0.00000988	0.00000000
41.73000000	11.94032893	614.63560811	76.00636498	0.68733215	0	-0.58789023	-0.12714378	-0.46887490	0.08905431	-0.00002712	0	0.00000976	0	-0.89453717	0	0	-0.00002086	0.00000000
41.74000000	14.88607133	618.99075712	76.36471954	0.68130133	0	-0.58809851	-0.15104770	-0.42781400	0.13869927	-0.00005056	0	0.00001810	0	-0.52198162	0	0	-0.00002644	0.00000000
